<svg width="48" height="48" viewBox="0 0 48 48" fill="none" xmlns="http://www.w3.org/2000/svg">
<path d="M42.9119 20.308C43.1579 21.626 43.2919 23.004 43.2919 24.442C43.2919 35.69 35.7639 43.688 24.3939 43.688C21.8082 43.6891 19.2476 43.1805 16.8584 42.1915C14.4693 41.2024 12.2985 39.7523 10.4701 37.9239C8.64166 36.0955 7.1915 33.9246 6.20245 31.5355C5.21341 29.1464 4.70488 26.5858 4.70593 24C4.70488 21.4142 5.21341 18.8536 6.20245 16.4645C7.1915 14.0754 8.64166 11.9045 10.4701 10.0761C12.2985 8.24773 14.4693 6.79756 16.8584 5.80852C19.2476 4.81947 21.8082 4.31095 24.3939 4.312C29.7099 4.312 34.1519 6.268 37.5599 9.444L32.0099 14.994V14.98C29.9439 13.012 27.3219 12.002 24.3939 12.002C17.8979 12.002 12.6179 17.49 12.6179 23.988C12.6179 30.486 17.8979 35.986 24.3939 35.986C30.2879 35.986 34.2999 32.614 35.1239 27.986H24.3939V20.308H42.9119Z" fill="black"/>
</svg>
