<svg width="128" height="128" viewBox="0 0 128 128" xmlns="http://www.w3.org/2000/svg">
<path d="M70.36 93.3334H109.58C110.832 93.3334 112.03 92.8937 113.113 92.2734C114.197 91.6532 115.315 90.8744 115.94 89.7999C116.566 88.7257 117.001 87.5067 117 86.2664C116.999 85.0259 116.567 83.8074 115.94 82.7337L89.44 37.1534C88.8145 36.0792 88.0503 35.3002 86.9668 34.6799C85.883 34.0599 84.3313 33.6199 83.08 33.6199C81.8288 33.6199 80.6303 34.0599 79.5468 34.6799C78.463 35.3002 77.6987 36.0792 77.0732 37.1534L70.36 48.8134L56.9333 26.1992C56.3073 25.1252 55.544 23.9934 54.46 23.3734C53.376 22.7532 52.1783 22.6667 50.9268 22.6667C49.6753 22.6667 48.4773 22.7532 47.3933 23.3734C46.3095 23.9934 45.1928 25.1252 44.5668 26.1992L11.7067 82.7337C11.0802 83.8074 11.0006 85.0259 11 86.2664C10.9995 87.5067 11.0812 88.7254 11.7067 89.7999C12.3322 90.8742 13.4495 91.6532 14.5333 92.2734C15.6172 92.8937 16.8151 93.3334 18.0667 93.3334H42.8C52.6003 93.3334 59.7335 88.9372 64.7068 80.6134L76.72 59.7667L83.08 48.8134L102.513 82.0267H76.72L70.36 93.3334ZM42.4468 82.0267H25.1333L50.9268 37.5067L64 59.7667L55.3403 74.8627C52.0378 80.2634 48.2723 82.0267 42.4468 82.0267Z"/>
</svg>
