<svg width="128" height="128" viewBox="0 0 128 128" fill="none" xmlns="http://www.w3.org/2000/svg">
<mask id="mask0_492_62" style="mask-type:luminance" maskUnits="userSpaceOnUse" x="68" y="54" width="30" height="19">
<path d="M68.3287 54.519H97.6702V72.1239H68.3287V54.519Z" fill="white"/>
</mask>
<g mask="url(#mask0_492_62)">
<path fill-rule="evenodd" clip-rule="evenodd" d="M82.9994 54.519C79.0873 54.519 76.6421 56.4751 75.6641 60.3873C77.1312 58.4312 78.8427 57.6977 80.7988 58.1867C81.9149 58.4655 82.7126 59.2756 83.5955 60.1716C85.0338 61.6316 86.6986 63.3215 90.3348 63.3215C94.247 63.3215 96.6921 61.3654 97.6702 57.4532C96.2031 59.4093 94.4915 60.1428 92.5354 59.6538C91.4194 59.3751 90.6217 58.5649 89.7387 57.6689C88.3005 56.2089 86.6356 54.519 82.9994 54.519ZM75.6641 63.3215C71.7519 63.3215 69.3068 65.2776 68.3287 69.1898C69.7958 67.2337 71.5074 66.5001 73.4635 66.9892C74.5795 67.2684 75.3772 68.0781 76.2602 68.9741C77.6984 70.4341 79.3633 72.1239 82.9994 72.1239C86.9116 72.1239 89.3568 70.1678 90.3348 66.2556C88.8677 68.2117 87.1562 68.9453 85.2001 68.4562C84.084 68.1775 83.2863 67.3673 82.4034 66.4713C80.9651 65.0113 79.3003 63.3215 75.6641 63.3215Z" fill="black"/>
</g>
<path d="M48.1229 71.9281H58.9114C59.2557 71.9281 59.5852 71.8071 59.8833 71.6365C60.1815 71.4659 60.4888 71.2517 60.6609 70.9561C60.833 70.6606 60.9526 70.3253 60.9525 69.9841C60.9523 69.6429 60.8332 69.3077 60.6609 69.0123L53.3714 56.4743C53.1993 56.1788 52.9891 55.9645 52.6911 55.7939C52.3929 55.6234 51.9661 55.5023 51.6219 55.5023C51.2777 55.5023 50.948 55.6234 50.65 55.7939C50.3519 55.9645 50.1417 56.1788 49.9696 56.4743L48.1229 59.6817L44.4296 53.4611C44.2574 53.1656 44.0474 52.8543 43.7492 52.6838C43.4511 52.5131 43.1216 52.4893 42.7773 52.4893C42.4331 52.4893 42.1035 52.5131 41.8053 52.6838C41.5072 52.8543 41.2 53.1656 41.0278 53.4611L31.9888 69.0123C31.8165 69.3077 31.7946 69.6429 31.7944 69.9841C31.7943 70.3253 31.8168 70.6605 31.9888 70.9561C32.1609 71.2516 32.4682 71.4659 32.7664 71.6365C33.0645 71.8071 33.394 71.9281 33.7383 71.9281H40.5418C43.2377 71.9281 45.1998 70.7188 46.5679 68.4291L49.8724 62.6947L51.6219 59.6817L56.9675 68.8179H49.8724L48.1229 71.9281ZM40.4447 68.8179H35.6822L42.7773 56.5715L46.3735 62.6947L43.9914 66.8472C43.0829 68.3328 42.0471 68.8179 40.4447 68.8179Z" fill="black"/>
<path fill-rule="evenodd" clip-rule="evenodd" d="M63.1663 99.6952C58.6403 97.3767 54.6147 94.2364 51.2822 90.4579C54.3118 89.8758 57.2979 88.7862 60.12 87.1568C61.1436 86.5658 62.1166 85.9207 63.0371 85.2271C64.7407 86.6971 66.6209 87.9668 68.6435 89.0033C73.5108 91.4964 78.9939 92.5313 84.4351 91.9834C89.876 91.4356 95.0432 89.3284 99.3154 85.9147C103.588 82.5015 106.783 77.9268 108.519 72.741C110.254 67.5552 110.455 61.9787 109.097 56.681C107.74 51.3838 104.882 46.591 100.866 42.879C96.8507 39.1669 91.8487 36.6932 86.4612 35.7552C85.7711 35.635 85.0785 35.5408 84.3847 35.4721C81.159 31.0871 77.2127 27.3146 72.7384 24.3022C77.9003 23.1433 83.2634 23.0041 88.5219 23.9196C96.1887 25.2545 103.307 28.7747 109.021 34.0574C114.736 39.3402 118.803 46.1603 120.735 53.6988C122.667 61.2374 122.381 69.1732 119.912 76.5532C117.442 83.9332 112.894 90.4429 106.815 95.3007C100.735 100.158 93.3814 103.157 85.6386 103.936C77.8954 104.716 70.092 103.243 63.1663 99.6952ZM66.5967 28.4037L70.4962 37.5913C72.2769 36.8354 74.1214 36.2672 76.0003 35.89C73.2549 32.9382 70.0843 30.415 66.5967 28.4037Z" fill="black"/>
<path fill-rule="evenodd" clip-rule="evenodd" d="M64.8338 27.4447C69.3938 29.7807 73.4458 32.9508 76.7926 36.7675C73.5828 37.321 70.4144 38.4407 67.4291 40.1643C66.5361 40.6799 65.6818 41.2366 64.8671 41.8307C63.1891 40.3955 61.3412 39.1538 59.3564 38.137C54.4893 35.6437 49.0058 34.6088 43.565 35.1566C38.1237 35.7045 32.9566 37.8118 28.6843 41.2253C24.4124 44.6385 21.2164 49.2131 19.4811 54.399C17.7458 59.5849 17.5448 65.1616 18.9023 70.4589C20.2598 75.7563 23.1184 80.5487 27.1336 84.2608C31.1494 87.9732 36.1512 90.447 41.5387 91.3849C42.2322 91.5056 42.9284 91.6002 43.6257 91.6687C46.8618 96.0529 50.8177 99.8221 55.302 102.829C50.1279 103.996 44.7502 104.138 39.4781 103.221C31.8114 101.885 24.6932 98.3655 18.9784 93.0826C13.2643 87.7999 9.19669 80.9797 7.26508 73.4411C5.33305 65.9027 5.61897 57.9667 8.08846 50.5868C10.558 43.2069 15.1057 36.6971 21.1856 31.8394C27.2655 26.9817 34.6186 23.9829 42.3614 23.2034C50.1043 22.4238 57.9077 23.8965 64.8338 27.4447Z" fill="black"/>
</svg>
